<svg width="178" height="48" viewBox="0 0 178 48" fill="none" xmlns="http://www.w3.org/2000/svg">
<rect x="0.000209808" width="177.459" height="47.09" rx="23.545" fill="#A5D364"/>
<path d="M62.9918 29.1266H66.0429L61.2929 22.888L65.8327 17.4903H62.7702L58.9065 22.138H58.4122V17.4903H55.952V29.1266H58.4122V24.1664H59.2531L62.9918 29.1266ZM68.5358 29.2857H69.4108C71.3199 29.2857 72.0869 28.138 72.6722 26.8426L76.6835 17.4903H74.1722L71.8824 23.2176L69.1438 17.4903H66.5983L70.8256 25.8653L70.6835 26.246C70.4449 26.9335 70.104 27.2857 69.1665 27.2857H68.5358V29.2857ZM87.9065 17.4903H78.3384V29.1266H80.7702V19.4903H85.4747V29.1266H87.9065V17.4903ZM90.2545 17.4903V29.1266H92.3795L97.442 21.8028H97.5273V29.1266H99.9875V17.4903H97.8284L92.8057 24.8085H92.7034V17.4903H90.2545ZM101.571 19.5187H105.134V29.1266H107.566V19.5187H111.128V17.4903H101.571V19.5187ZM115.202 21.7914V17.4903H112.747V29.1266H117.094C119.855 29.1266 121.577 27.6096 121.571 25.4107C121.577 23.2062 119.855 21.7914 117.094 21.7914H115.202ZM115.202 23.7346H117.094C118.418 23.7346 119.139 24.4619 119.134 25.388C119.139 26.3426 118.418 27.1494 117.094 27.1494H115.202V23.7346Z" fill="white"/>
</svg>
